<svg width="20" height="20" viewBox="0 0 20 20" fill="none" xmlns="http://www.w3.org/2000/svg">
<path d="M9.99996 11.6665C10.1648 11.6665 10.3259 11.6176 10.4629 11.5261C10.6 11.4345 10.7068 11.3043 10.7699 11.1521C10.8329 10.9998 10.8494 10.8322 10.8173 10.6706C10.7851 10.5089 10.7058 10.3605 10.5892 10.2439C10.4727 10.1274 10.3242 10.048 10.1625 10.0158C10.0009 9.9837 9.83333 10.0002 9.68106 10.0633C9.52878 10.1263 9.39864 10.2332 9.30707 10.3702C9.2155 10.5072 9.16663 10.6684 9.16663 10.8332C9.16663 11.0542 9.25442 11.2661 9.4107 11.4224C9.56698 11.5787 9.77894 11.6665 9.99996 11.6665ZM14.1666 11.6665C14.3314 11.6665 14.4926 11.6176 14.6296 11.5261C14.7666 11.4345 14.8735 11.3043 14.9365 11.1521C14.9996 10.9998 15.0161 10.8322 14.9839 10.6706C14.9518 10.5089 14.8724 10.3605 14.7559 10.2439C14.6393 10.1274 14.4909 10.048 14.3292 10.0158C14.1676 9.9837 14 10.0002 13.8477 10.0633C13.6955 10.1263 13.5653 10.2332 13.4737 10.3702C13.3822 10.5072 13.3333 10.6684 13.3333 10.8332C13.3333 11.0542 13.4211 11.2661 13.5774 11.4224C13.7336 11.5787 13.9456 11.6665 14.1666 11.6665ZM9.99996 14.9998C10.1648 14.9998 10.3259 14.951 10.4629 14.8594C10.6 14.7678 10.7068 14.6377 10.7699 14.4854C10.8329 14.3331 10.8494 14.1656 10.8173 14.0039C10.7851 13.8423 10.7058 13.6938 10.5892 13.5772C10.4727 13.4607 10.3242 13.3813 10.1625 13.3492C10.0009 13.317 9.83333 13.3335 9.68106 13.3966C9.52878 13.4597 9.39864 13.5665 9.30707 13.7035C9.2155 13.8406 9.16663 14.0017 9.16663 14.1665C9.16663 14.3875 9.25442 14.5995 9.4107 14.7558C9.56698 14.912 9.77894 14.9998 9.99996 14.9998ZM14.1666 14.9998C14.3314 14.9998 14.4926 14.951 14.6296 14.8594C14.7666 14.7678 14.8735 14.6377 14.9365 14.4854C14.9996 14.3331 15.0161 14.1656 14.9839 14.0039C14.9518 13.8423 14.8724 13.6938 14.7559 13.5772C14.6393 13.4607 14.4909 13.3813 14.3292 13.3492C14.1676 13.317 14 13.3335 13.8477 13.3966C13.6955 13.4597 13.5653 13.5665 13.4737 13.7035C13.3822 13.8406 13.3333 14.0017 13.3333 14.1665C13.3333 14.3875 13.4211 14.5995 13.5774 14.7558C13.7336 14.912 13.9456 14.9998 14.1666 14.9998ZM5.83329 11.6665C5.99811 11.6665 6.15923 11.6176 6.29627 11.5261C6.43331 11.4345 6.54012 11.3043 6.60319 11.1521C6.66627 10.9998 6.68277 10.8322 6.65061 10.6706C6.61846 10.5089 6.53909 10.3605 6.42255 10.2439C6.306 10.1274 6.15752 10.048 5.99587 10.0158C5.83422 9.9837 5.66666 10.0002 5.51439 10.0633C5.36212 10.1263 5.23197 10.2332 5.1404 10.3702C5.04883 10.5072 4.99996 10.6684 4.99996 10.8332C4.99996 11.0542 5.08776 11.2661 5.24404 11.4224C5.40032 11.5787 5.61228 11.6665 5.83329 11.6665ZM15.8333 3.33317H15V2.49984C15 2.27882 14.9122 2.06686 14.7559 1.91058C14.5996 1.7543 14.3876 1.6665 14.1666 1.6665C13.9456 1.6665 13.7336 1.7543 13.5774 1.91058C13.4211 2.06686 13.3333 2.27882 13.3333 2.49984V3.33317H6.66663V2.49984C6.66663 2.27882 6.57883 2.06686 6.42255 1.91058C6.26627 1.7543 6.05431 1.6665 5.83329 1.6665C5.61228 1.6665 5.40032 1.7543 5.24404 1.91058C5.08776 2.06686 4.99996 2.27882 4.99996 2.49984V3.33317H4.16663C3.50358 3.33317 2.8677 3.59656 2.39886 4.0654C1.93002 4.53424 1.66663 5.17013 1.66663 5.83317V15.8332C1.66663 16.4962 1.93002 17.1321 2.39886 17.6009C2.8677 18.0698 3.50358 18.3332 4.16663 18.3332H15.8333C16.4963 18.3332 17.1322 18.0698 17.6011 17.6009C18.0699 17.1321 18.3333 16.4962 18.3333 15.8332V5.83317C18.3333 5.17013 18.0699 4.53424 17.6011 4.0654C17.1322 3.59656 16.4963 3.33317 15.8333 3.33317ZM16.6666 15.8332C16.6666 16.0542 16.5788 16.2661 16.4225 16.4224C16.2663 16.5787 16.0543 16.6665 15.8333 16.6665H4.16663C3.94561 16.6665 3.73365 16.5787 3.57737 16.4224C3.42109 16.2661 3.33329 16.0542 3.33329 15.8332V8.33317H16.6666V15.8332ZM16.6666 6.6665H3.33329V5.83317C3.33329 5.61216 3.42109 5.4002 3.57737 5.24392C3.73365 5.08763 3.94561 4.99984 4.16663 4.99984H15.8333C16.0543 4.99984 16.2663 5.08763 16.4225 5.24392C16.5788 5.4002 16.6666 5.61216 16.6666 5.83317V6.6665ZM5.83329 14.9998C5.99811 14.9998 6.15923 14.951 6.29627 14.8594C6.43331 14.7678 6.54012 14.6377 6.60319 14.4854C6.66627 14.3331 6.68277 14.1656 6.65061 14.0039C6.61846 13.8423 6.53909 13.6938 6.42255 13.5772C6.306 13.4607 6.15752 13.3813 5.99587 13.3492C5.83422 13.317 5.66666 13.3335 5.51439 13.3966C5.36212 13.4597 5.23197 13.5665 5.1404 13.7035C5.04883 13.8406 4.99996 14.0017 4.99996 14.1665C4.99996 14.3875 5.08776 14.5995 5.24404 14.7558C5.40032 14.912 5.61228 14.9998 5.83329 14.9998Z" fill="#086AD8"/>
</svg>
