<svg width="420" height="250" viewBox="0 0 420 250" fill="none" xmlns="http://www.w3.org/2000/svg">
<g id="chola_ms_general_ic">
<g id="chola_ms_general_ic_2" clip-path="url(#clip0_65_766)">
<g id="g10">
<g id="g268">
<path id="path270" d="M267.042 116.772C269.45 113.85 272.236 110.791 275.791 107.376C279.344 103.919 282.512 101.265 285.608 98.9832C288.967 96.4228 293.297 96.3374 296.642 98.9405C299.709 101.265 302.87 103.919 306.42 107.376C309.975 110.771 312.784 113.837 315.157 116.754C317.984 120.207 317.956 123.886 315.157 127.339C312.764 130.294 309.961 133.345 306.42 136.775C302.839 140.192 299.709 142.83 296.642 145.146C293.234 147.68 288.984 147.68 285.608 145.146C282.512 142.83 279.368 140.16 275.832 136.775C272.236 133.345 269.474 130.294 267.079 127.339C264.449 124.118 264.317 119.991 267.042 116.772Z" fill="#1E4384"/>
</g>
<g id="g272">
<path id="path274" d="M264.547 122.759C264.888 124.406 265.649 125.793 266.922 127.339C269.34 130.306 272.234 133.345 275.832 136.775C279.368 140.159 282.512 142.83 285.606 145.146C287.003 146.206 288.654 146.844 290.234 147.005C286.964 146.206 282.187 141.191 284.737 132.12C287.129 123.524 291.023 117.209 293.004 113.349L293.024 113.223C296.984 105.784 291.404 103.262 287.003 107.002C290.12 102.717 297.25 95.7313 299.709 93.1993C302.142 90.6043 300.419 87.9809 295.514 89.319C285.431 92.3757 272.911 101.822 267.042 112.983C265.11 116.699 264.25 119.94 264.547 122.759Z" fill="#EB2227"/>
</g>
<g id="g276">
<path id="path278" d="M119.075 143.072C116.095 143.072 113.315 142.59 110.714 141.638C108.139 140.666 105.872 139.267 103.942 137.438C102.067 135.639 100.576 133.44 99.4739 130.802C98.4082 128.142 97.853 125.248 97.853 122.078C97.853 118.93 98.4082 116.024 99.4739 113.353C100.592 110.669 102.146 108.346 104.119 106.38C106.061 104.456 108.398 102.969 111.135 101.92C113.844 100.856 116.779 100.328 119.878 100.328C122.111 100.328 124.167 100.604 126.022 101.153C127.864 101.678 129.438 102.298 130.718 102.969L132.493 101.409H134.968L135.236 116.223H132.715C131.269 111.71 129.569 108.385 127.567 106.266C125.562 104.151 123.122 103.085 120.242 103.085C116.659 103.085 113.936 104.676 112.065 107.846C110.2 110.98 109.26 115.409 109.26 121.102C109.26 124.327 109.585 127.069 110.21 129.367C110.852 131.644 111.694 133.467 112.727 134.864C113.836 136.308 115.133 137.379 116.642 138.065C118.149 138.742 119.813 139.063 121.645 139.063C124.316 139.063 126.683 138.35 128.771 136.893C130.872 135.439 132.766 133.255 134.482 130.323L136.937 131.807C136.121 133.485 135.194 134.992 134.136 136.318C133.089 137.638 131.877 138.773 130.506 139.722C129.007 140.778 127.338 141.589 125.513 142.181C123.697 142.773 121.548 143.072 119.075 143.072Z" fill="#231F20"/>
</g>
<g id="g280">
<path id="path282" d="M174.151 141.984H156.944V139.899C157.31 139.858 157.767 139.816 158.282 139.749C158.79 139.7 159.179 139.602 159.423 139.466C159.832 139.25 160.09 138.955 160.253 138.551C160.424 138.15 160.511 137.56 160.511 136.777V123.406C160.511 121.437 160.147 119.965 159.403 118.989C158.664 118.027 157.639 117.541 156.277 117.541C155.51 117.541 154.808 117.646 154.131 117.882C153.501 118.112 152.854 118.44 152.226 118.879C151.67 119.257 151.225 119.65 150.879 120.054C150.552 120.455 150.271 120.805 150.037 121.102V136.464C150.037 137.166 150.131 137.727 150.306 138.15C150.487 138.551 150.796 138.882 151.266 139.149C151.559 139.319 151.931 139.47 152.392 139.61C152.87 139.734 153.322 139.838 153.759 139.899V141.984H136.373V139.899C136.869 139.858 137.353 139.816 137.803 139.749C138.287 139.7 138.702 139.602 139.078 139.466C139.67 139.238 140.08 138.917 140.3 138.492C140.524 138.057 140.636 137.475 140.636 136.777V104.909C140.636 104.277 140.491 103.64 140.211 102.953C139.936 102.263 139.519 101.751 139.011 101.409C138.632 101.157 138.075 100.972 137.353 100.838C136.627 100.683 135.978 100.59 135.401 100.543V98.4625L149.612 97.7161L150.037 98.1737V117.85H150.151C150.879 117.199 151.53 116.619 152.106 116.107C152.702 115.572 153.413 115.037 154.245 114.504C154.955 114.039 155.868 113.662 156.991 113.341C158.144 113.008 159.372 112.843 160.682 112.843C163.777 112.843 166.087 113.729 167.629 115.507C169.193 117.27 169.976 119.615 169.98 122.509V136.523C169.98 137.221 170.084 137.788 170.287 138.201C170.507 138.63 170.889 138.964 171.462 139.218C171.804 139.36 172.18 139.49 172.609 139.61C173.024 139.722 173.539 139.82 174.151 139.899" fill="#231F20"/>
</g>
<g id="g284">
<path id="path286" d="M202.52 116.994C203.941 118.314 205.009 119.875 205.759 121.708C206.491 123.544 206.876 125.533 206.876 127.656C206.876 129.778 206.491 131.781 205.759 133.658C205.031 135.537 203.955 137.135 202.558 138.474C201.043 139.899 199.249 140.995 197.147 141.752C195.07 142.519 192.691 142.899 189.998 142.899C187.676 142.899 185.538 142.557 183.563 141.904C181.621 141.231 179.897 140.221 178.394 138.899C176.942 137.621 175.797 136.045 174.961 134.17C174.127 132.287 173.704 130.182 173.704 127.856C173.704 125.572 174.062 123.544 174.784 121.765C175.53 119.975 176.643 118.383 178.101 116.994C179.514 115.656 181.247 114.628 183.313 113.9C185.392 113.158 187.694 112.786 190.252 112.786C192.921 112.786 195.276 113.158 197.299 113.9C199.321 114.628 201.08 115.656 202.52 116.994ZM195.206 136.808C195.619 135.732 195.924 134.451 196.126 132.92C196.321 131.394 196.441 129.625 196.441 127.599C196.441 126.261 196.341 124.742 196.156 123.026C195.949 121.307 195.67 119.953 195.288 118.968C194.828 117.764 194.192 116.821 193.378 116.133C192.571 115.436 191.554 115.1 190.311 115.1C188.965 115.1 187.873 115.481 187.057 116.219C186.262 116.959 185.638 117.937 185.194 119.105C184.796 120.203 184.513 121.478 184.357 122.938C184.214 124.384 184.143 125.907 184.143 127.492C184.143 129.57 184.208 131.289 184.33 132.659C184.477 134.016 184.796 135.382 185.312 136.749C185.752 137.941 186.378 138.864 187.194 139.551C188.017 140.237 189.052 140.576 190.311 140.576C191.46 140.576 192.445 140.261 193.26 139.637C194.082 138.988 194.724 138.049 195.206 136.808Z" fill="#231F20"/>
</g>
<g id="g288">
<path id="path290" d="M224.523 141.984H206.598V139.899C207.09 139.858 207.558 139.816 208.028 139.749C208.5 139.7 208.921 139.602 209.287 139.466C209.899 139.238 210.304 138.917 210.509 138.492C210.741 138.057 210.855 137.475 210.855 136.777V105.103C210.855 104.381 210.7 103.709 210.393 103.097C210.112 102.467 209.728 101.985 209.23 101.666C208.837 101.409 208.258 101.184 207.483 100.95C206.716 100.724 206.041 100.59 205.449 100.543V98.4625L219.834 97.7161L220.265 98.1737V136.407C220.265 137.111 220.389 137.684 220.631 138.116C220.881 138.555 221.286 138.901 221.843 139.149C222.207 139.319 222.624 139.47 223.035 139.61C223.456 139.734 223.958 139.838 224.523 139.899" fill="#231F20"/>
</g>
<g id="g292">
<path id="path294" d="M256.498 141.38C255.658 141.738 254.669 142.083 253.526 142.386C252.386 142.685 251.186 142.84 249.894 142.84C247.558 142.84 245.833 142.498 244.723 141.811C243.622 141.101 242.86 140.102 242.469 138.817H242.3C241.635 139.458 241.021 140.009 240.401 140.473C239.821 140.92 239.169 141.321 238.487 141.638C237.596 142.047 236.718 142.37 235.894 142.557C235.063 142.769 233.918 142.864 232.429 142.864C230.224 142.864 228.325 142.226 226.769 140.92C225.199 139.61 224.414 137.878 224.414 135.716C224.414 134.479 224.595 133.44 224.937 132.566C225.278 131.697 225.76 130.922 226.401 130.255C226.964 129.653 227.623 129.141 228.361 128.74C229.122 128.338 229.964 127.967 230.853 127.622C232.579 127.005 234.637 126.349 237.029 125.677C239.435 124.992 241.184 124.38 242.3 123.855V121.102C242.3 120.626 242.254 119.995 242.185 119.229C242.107 118.44 241.943 117.785 241.686 117.248C241.426 116.636 241.009 116.133 240.434 115.71C239.852 115.291 239.097 115.076 238.174 115.076C237.34 115.076 236.626 115.204 236.065 115.436C235.508 115.672 235.054 115.91 234.715 116.166C234.768 116.54 234.926 117.124 235.201 117.909C235.473 118.684 235.595 119.44 235.595 120.154C235.595 120.49 235.514 120.9 235.341 121.392C235.166 121.874 234.926 122.251 234.595 122.542C234.166 122.92 233.661 123.219 233.12 123.424C232.579 123.638 231.752 123.741 230.629 123.741C229.026 123.741 227.81 123.361 227.001 122.603C226.185 121.824 225.76 120.805 225.76 119.566C225.76 118.494 226.185 117.549 227.017 116.697C227.882 115.849 228.917 115.131 230.141 114.59C231.345 114.018 232.724 113.585 234.282 113.272C235.858 112.951 237.287 112.784 238.634 112.784C240.484 112.784 242.185 112.906 243.722 113.142C245.268 113.349 246.655 113.788 247.893 114.472C249.081 115.131 250.006 116.107 250.704 117.388C251.405 118.649 251.755 120.3 251.755 122.332C251.755 124.49 251.702 127.054 251.615 130.005C251.54 132.952 251.503 134.896 251.503 135.83C251.503 136.692 251.623 137.367 251.871 137.869C252.133 138.358 252.532 138.742 253.071 138.988C253.39 139.124 253.899 139.228 254.596 139.267C255.298 139.289 255.924 139.289 256.498 139.289V141.38ZM242.3 126.483C241.219 126.847 240.163 127.266 239.112 127.732C238.068 128.203 237.208 128.685 236.543 129.198C235.833 129.729 235.276 130.422 234.886 131.252C234.487 132.084 234.282 133.044 234.282 134.17C234.282 135.669 234.621 136.739 235.276 137.41C235.978 138.073 236.814 138.402 237.804 138.402C238.847 138.402 239.716 138.201 240.372 137.778C241.07 137.343 241.664 136.808 242.185 136.175" fill="#231F20"/>
</g>
<g id="g296">
<path id="path298" d="M378.314 141.984H357.171V139.848C357.798 139.783 358.552 139.7 359.455 139.566C360.364 139.431 360.991 139.301 361.324 139.149C362.002 138.878 362.49 138.502 362.787 138.018C363.069 137.552 363.203 136.944 363.222 136.21V107.075L349.801 141.347H346.338C346.175 140.745 345.762 139.543 345.099 137.756C344.453 135.948 343.94 134.522 343.54 133.44L333.67 106.636V130.353C333.67 132.635 333.814 134.365 334.109 135.547C334.423 136.727 334.915 137.591 335.586 138.138C336.045 138.524 336.863 138.882 338.028 139.238C339.222 139.58 340.062 139.783 340.54 139.848V141.984H323.782V139.848C324.234 139.783 324.97 139.659 325.991 139.48C327.05 139.281 327.89 138.937 328.551 138.471C329.287 137.953 329.784 137.097 330.042 135.883C330.296 134.654 330.422 132.919 330.422 130.658V111.33C330.422 110.15 330.272 109.19 329.985 108.422C329.684 107.624 329.255 107.01 328.659 106.553C327.929 105.979 327.181 105.621 326.412 105.454C325.633 105.279 324.866 105.184 324.079 105.125V102.969H342.037L351.642 128.736L359.756 107.807C360.031 107.047 360.297 106.115 360.551 105.07C360.806 104.006 360.944 103.309 360.96 102.969H378.255V105.125C377.671 105.164 377.051 105.237 376.412 105.34C375.772 105.454 375.147 105.605 374.568 105.784C373.856 106.018 373.378 106.398 373.138 106.906C372.925 107.423 372.809 107.99 372.809 108.613V136.232C372.809 136.897 372.925 137.457 373.138 137.922C373.378 138.358 373.856 138.742 374.568 139.075C374.93 139.238 375.538 139.385 376.349 139.543C377.197 139.671 377.836 139.783 378.314 139.848" fill="#231F20"/>
</g>
<g id="g300">
<path id="path302" d="M396.574 143.029C394.195 143.029 391.958 142.738 389.894 142.15C387.836 141.565 386.097 140.865 384.663 140.06L382.772 141.976H380.439L380.079 127.884H382.442C382.981 129.224 383.646 130.626 384.472 132.12C385.291 133.601 386.247 134.935 387.327 136.106C388.454 137.335 389.694 138.327 391.069 139.086C392.46 139.863 394.091 140.251 395.94 140.251C398.437 140.251 400.333 139.649 401.659 138.443C402.997 137.217 403.66 135.675 403.66 133.825C403.66 132.295 403.092 131.032 401.958 129.995C400.847 128.962 399.1 128.047 396.733 127.307C395.192 126.81 393.772 126.351 392.487 125.94C391.191 125.517 389.977 125.088 388.852 124.636C386.223 123.601 384.277 122.092 382.985 120.156C381.722 118.232 381.1 116.038 381.1 113.646C381.1 112.127 381.425 110.663 382.088 109.264C382.743 107.864 383.697 106.603 384.972 105.481C386.18 104.434 387.724 103.577 389.615 102.922C391.502 102.26 393.554 101.934 395.779 101.934C397.937 101.934 399.954 102.233 401.846 102.835C403.735 103.421 405.23 104.019 406.302 104.629L407.981 102.975H410.373L410.597 116.286H408.23C407.676 114.852 407.03 113.402 406.275 111.924C405.543 110.413 404.76 109.16 403.943 108.182C403.033 107.11 402.008 106.268 400.833 105.637C399.66 104.997 398.287 104.686 396.705 104.686C394.724 104.686 393.107 105.245 391.84 106.353C390.585 107.474 389.977 108.853 389.977 110.502C389.977 112.072 390.516 113.349 391.598 114.327C392.7 115.318 394.398 116.19 396.705 116.949C398.059 117.396 399.45 117.85 400.847 118.32C402.265 118.779 403.526 119.227 404.63 119.639C407.278 120.664 409.301 122.07 410.672 123.902C412.069 125.698 412.767 127.921 412.767 130.605C412.767 132.287 412.368 133.922 411.577 135.496C410.79 137.074 409.728 138.392 408.398 139.421C406.926 140.587 405.234 141.469 403.304 142.092C401.376 142.724 399.141 143.029 396.574 143.029Z" fill="#231F20"/>
</g>
<g id="g304">
<path id="path306" d="M41.8996 122.125C38.1759 120.599 35.526 118.537 36.1219 113.31C36.9171 106.31 47.9356 98.2916 51.4661 94.3035C53.9595 91.4991 54.5309 84.6252 54.5309 84.6252C54.5309 84.6252 58.218 92.2759 53.9371 98.6373C52.2003 101.222 43.3761 109.804 41.5437 115.127C40.8563 117.174 40.4882 119.806 41.8996 122.125Z" fill="#EB2227"/>
</g>
<g id="g308">
<path id="path310" d="M35.6277 115.521C31.9325 113.943 28.9653 111.35 29.6588 106.16C30.5862 99.1581 41.7349 91.3284 45.3264 87.4155C47.8726 84.6517 48.5519 77.8897 48.5519 77.8897C48.5519 77.8897 52.1169 85.5974 47.714 91.8998C45.9345 94.444 36.9638 102.864 35.04 108.157C34.3119 110.179 33.8299 112.816 35.6277 115.521Z" fill="#EB2227"/>
</g>
<g id="g312">
<path id="path314" d="M59.9488 116.422C63.6725 117.937 66.3204 119.997 65.7224 125.21C64.9232 132.226 53.9046 140.251 50.3843 144.227C47.8788 147.035 47.3114 153.919 47.3114 153.919C47.3114 153.919 43.6263 146.269 47.9154 139.889C49.644 137.322 58.4723 128.728 60.2884 123.412C61.0002 121.362 61.3561 118.73 59.9488 116.422Z" fill="#EB2227"/>
</g>
<g id="g316">
<path id="path318" d="M66.2187 123.013C69.9079 124.596 72.873 127.174 72.1856 132.385C71.2623 139.368 60.1136 147.212 56.516 151.125C53.9698 153.885 53.2824 160.641 53.2824 160.641C53.2824 160.641 49.7356 152.927 54.1284 146.629C55.916 144.097 64.8928 135.671 66.8146 130.373C67.5366 128.346 68.0145 125.714 66.2187 123.013Z" fill="#EB2227"/>
</g>
<g id="g320">
<path id="path322" d="M53.7744 128.289C52.2532 132.019 50.1951 134.662 44.9685 134.073C37.9706 133.273 29.9415 122.251 25.9616 118.73C23.149 116.223 16.271 115.655 16.271 115.655C16.271 115.655 23.9279 111.977 30.2954 116.268C32.866 117.986 41.4624 126.818 46.7826 128.647C48.8163 129.342 51.458 129.706 53.7744 128.289Z" fill="#1E4384"/>
</g>
<g id="g324">
<path id="path326" d="M47.169 134.561C45.5969 138.266 43.0304 141.213 37.8099 140.538C30.812 139.61 22.9863 128.462 19.0755 124.862C16.2975 122.318 9.5415 121.632 9.5415 121.632C9.5415 121.632 17.2594 118.082 23.5476 122.472C26.0897 124.256 34.5174 133.229 39.807 135.144C41.8468 135.883 44.4723 136.352 47.169 134.561Z" fill="#1E4384"/>
</g>
<g id="g328">
<path id="path330" d="M48.0737 110.25C49.599 106.516 51.653 103.868 56.8634 104.456C63.8837 105.278 71.9026 116.286 75.8866 119.808C78.687 122.308 85.567 122.879 85.567 122.879C85.567 122.879 77.9122 126.562 71.5406 122.277C68.974 120.545 60.3878 111.72 55.0697 109.884C53.0278 109.199 50.3779 108.834 48.0737 110.25Z" fill="#1E4384"/>
</g>
<g id="g332">
<path id="path334" d="M54.6694 103.974C56.2517 100.264 58.8243 97.3115 64.0346 98.0091C71.0346 98.9283 78.8603 110.087 82.7731 113.683C85.541 116.223 92.2969 116.9 92.2969 116.9C92.2969 116.9 84.5872 120.465 78.2908 116.064C75.7467 114.293 67.317 105.31 62.0294 103.402C60.0018 102.656 57.3702 102.18 54.6694 103.974Z" fill="#1E4384"/>
</g>
<g id="g336">
<path id="path338" d="M104.694 165.497H109.821V165.933C109.257 165.933 108.865 165.986 108.657 166.116C108.466 166.201 108.334 166.398 108.269 166.663C108.206 166.931 108.165 167.58 108.165 168.595V169.862L107.795 169.813C107.352 169.813 106.76 169.953 106.024 170.234C105.035 170.608 104.114 170.787 103.276 170.787C101.568 170.787 100.161 170.234 99.034 169.115C97.9114 168.001 97.3501 166.581 97.3501 164.865C97.3501 163.167 97.8829 161.69 98.9547 160.401C100.022 159.13 101.485 158.485 103.331 158.485C104.915 158.485 106.227 159.071 107.277 160.234C107.466 159.834 107.59 159.384 107.639 158.914H108.045V162.88H107.639C107.482 161.65 107.002 160.69 106.243 159.978C105.493 159.266 104.57 158.914 103.494 158.914C102.381 158.914 101.413 159.333 100.586 160.155C99.756 160.989 99.3472 162.457 99.3472 164.568C99.3472 166.675 99.7336 168.164 100.551 169.052C101.342 169.929 102.333 170.36 103.518 170.36C104.122 170.36 104.673 170.234 105.166 169.994C105.66 169.728 106.012 169.445 106.195 169.087C106.363 168.729 106.463 168.273 106.463 167.741C106.463 167.1 106.414 166.675 106.323 166.466C106.243 166.246 106.115 166.116 105.945 166.038C105.759 165.965 105.444 165.933 104.981 165.933H104.694" fill="#231F20"/>
</g>
<g id="g340">
<path id="path342" d="M122.448 166.884H122.869L122.613 170.573H112.792V170.173H113.028C113.616 170.173 114 170.091 114.175 169.927C114.342 169.774 114.462 169.579 114.5 169.337C114.555 169.093 114.576 168.475 114.576 167.48V161.662C114.576 160.751 114.553 160.165 114.492 159.874C114.437 159.589 114.329 159.396 114.146 159.276C113.967 159.164 113.605 159.11 113.028 159.11V158.701H121.51L121.789 161.662H121.388C121.197 160.826 120.959 160.248 120.689 159.907C120.431 159.553 120.101 159.331 119.721 159.242C119.343 159.156 118.761 159.11 117.919 159.11H116.28V164.094H117.539C118.112 164.094 118.525 164.043 118.739 163.938C118.972 163.84 119.131 163.683 119.198 163.492C119.267 163.293 119.314 162.878 119.314 162.309H119.721V166.374H119.314C119.314 165.717 119.263 165.266 119.151 165.05C119.042 164.83 118.875 164.67 118.665 164.617C118.448 164.552 118.086 164.503 117.571 164.503H116.28V167.311C116.28 168.727 116.367 169.546 116.55 169.799C116.731 170.055 117.209 170.173 118.006 170.173H118.897C119.517 170.173 120.03 170.091 120.431 169.927C120.841 169.766 121.224 169.445 121.59 168.942C121.948 168.448 122.245 167.755 122.448 166.884Z" fill="#231F20"/>
</g>
<g id="g344">
<path id="path346" d="M136.43 170.84L128.033 159.72V167.948C128.033 168.635 128.055 169.085 128.128 169.298C128.197 169.524 128.391 169.715 128.708 169.896C129.019 170.077 129.499 170.173 130.129 170.173V170.573H125.692V170.173C126.267 170.134 126.699 170.018 127.002 169.864C127.299 169.697 127.465 169.506 127.52 169.317C127.583 169.125 127.612 168.67 127.612 167.948V161.66C127.612 160.747 127.561 160.139 127.477 159.831C127.386 159.522 127.266 159.327 127.071 159.238C126.9 159.156 126.475 159.107 125.855 159.107V158.699H129.348L136.371 167.989V160.897C136.371 160.364 136.32 159.992 136.212 159.789C136.108 159.567 135.885 159.406 135.545 159.286C135.234 159.168 134.829 159.107 134.347 159.107V158.699H138.669V159.107C138.163 159.156 137.756 159.242 137.471 159.396C137.182 159.541 137.003 159.72 136.924 159.949C136.847 160.153 136.796 160.511 136.796 161.023V170.84" fill="#231F20"/>
</g>
<g id="g348">
<path id="path350" d="M151.046 166.884H151.457L151.207 170.573H141.378V170.173H141.632C142.208 170.173 142.59 170.091 142.759 169.927C142.944 169.774 143.039 169.579 143.098 169.337C143.131 169.093 143.166 168.475 143.166 167.48V161.662C143.166 160.751 143.131 160.165 143.086 159.874C143.039 159.589 142.924 159.396 142.745 159.276C142.56 159.164 142.191 159.11 141.632 159.11V158.701H150.115L150.385 161.662H149.966C149.783 160.826 149.555 160.248 149.279 159.907C149.008 159.553 148.695 159.331 148.321 159.242C147.945 159.156 147.335 159.11 146.515 159.11H144.868V164.094H146.133C146.706 164.094 147.107 164.043 147.335 163.938C147.558 163.84 147.721 163.683 147.8 163.492C147.876 163.293 147.908 162.878 147.908 162.309H148.321V166.374H147.908C147.908 165.717 147.843 165.266 147.743 165.05C147.627 164.83 147.463 164.67 147.249 164.617C147.044 164.552 146.688 164.503 146.175 164.503H144.868V167.311C144.868 168.727 144.957 169.546 145.136 169.799C145.323 170.055 145.815 170.173 146.598 170.173H147.489C148.12 170.173 148.628 170.091 149.021 169.927C149.427 169.766 149.81 169.445 150.18 168.942C150.534 168.448 150.837 167.755 151.046 166.884Z" fill="#231F20"/>
</g>
<g id="g352">
<path id="path354" d="M167.015 170.575H163.816C163.249 170.191 162.388 169.136 161.223 167.456C160.847 166.917 160.452 166.398 160.064 165.92C159.645 165.42 159.385 165.119 159.218 165.023C159.075 164.91 158.838 164.849 158.518 164.849H158.046V167.482C158.046 168.424 158.075 169.02 158.111 169.313C158.142 169.605 158.26 169.813 158.451 169.953C158.642 170.102 159.006 170.175 159.553 170.175H160.111V170.575H154.435V170.175H154.831C155.338 170.175 155.679 170.106 155.87 169.98C156.059 169.849 156.198 169.65 156.247 169.39C156.302 169.101 156.328 168.477 156.328 167.482V161.662C156.328 160.704 156.302 160.104 156.247 159.833C156.198 159.553 156.072 159.366 155.903 159.262C155.716 159.166 155.333 159.109 154.721 159.109H154.53V158.701L156.214 158.613C157.351 158.562 158.254 158.546 158.921 158.546C160.05 158.546 160.973 158.646 161.681 158.863C162.388 159.063 162.964 159.408 163.401 159.882C163.83 160.364 164.052 160.942 164.052 161.605C164.052 162.376 163.775 163.039 163.196 163.594C162.634 164.131 161.776 164.474 160.664 164.617C161.176 164.849 161.973 165.713 163.082 167.206C163.985 168.408 164.676 169.199 165.193 169.569C165.711 169.945 166.307 170.144 167.015 170.175V170.575ZM158.046 164.44C158.492 164.432 158.923 164.417 159.409 164.391C159.858 164.371 160.281 164.31 160.617 164.194C160.961 164.094 161.227 163.937 161.445 163.752C161.664 163.541 161.833 163.279 161.967 162.943C162.069 162.624 162.138 162.229 162.138 161.741C162.138 160.907 161.925 160.234 161.512 159.738C161.097 159.24 160.194 158.981 158.787 158.981C158.573 158.981 158.325 159.004 158.046 159.014" fill="#231F20"/>
</g>
<g id="g356">
<path id="path358" d="M176.754 166.187H172.252L171.932 166.941C171.497 168.042 171.271 168.749 171.271 169.085C171.271 169.445 171.377 169.709 171.623 169.896C171.865 170.077 172.176 170.173 172.563 170.173V170.573H169.03V170.173C169.553 170.091 169.95 169.908 170.206 169.618C170.466 169.329 170.769 168.711 171.129 167.785C171.155 167.704 171.296 167.358 171.542 166.783L174.999 158.526H175.335L179.305 167.952L179.854 169.201C179.974 169.485 180.14 169.709 180.346 169.868C180.545 170.026 180.862 170.134 181.271 170.173V170.573H176.612V170.173C177.179 170.173 177.572 170.134 177.771 170.049C177.974 169.953 178.07 169.793 178.07 169.54C178.07 169.414 177.942 169.02 177.667 168.397L176.754 166.187ZM176.612 165.794L174.515 160.739L172.412 165.794" fill="#231F20"/>
</g>
<g id="g360">
<path id="path362" d="M193.821 167.082L193.723 170.575H183.644V170.175H183.996C184.5 170.175 184.844 170.104 185.043 169.98C185.232 169.847 185.365 169.658 185.415 169.39C185.472 169.101 185.507 168.477 185.507 167.48V161.662C185.507 160.704 185.472 160.102 185.415 159.833C185.365 159.553 185.255 159.366 185.066 159.26C184.895 159.164 184.5 159.109 183.902 159.109H183.644V158.701H189.349V159.109H188.812C188.234 159.109 187.852 159.164 187.669 159.25C187.49 159.341 187.358 159.526 187.307 159.791C187.244 160.043 187.203 160.679 187.203 161.662V167.879C187.203 168.735 187.24 169.266 187.286 169.487C187.333 169.699 187.449 169.868 187.652 169.994C187.866 170.104 188.332 170.175 189.003 170.175H189.898C190.628 170.175 191.161 170.104 191.525 169.98C191.87 169.847 192.208 169.569 192.525 169.136C192.842 168.709 193.148 168.019 193.396 167.082" fill="#231F20"/>
</g>
<g id="g364">
<path id="path366" d="M202.844 159.109V158.701H208.27V159.109H208.026C207.438 159.109 207.05 159.156 206.875 159.25C206.692 159.341 206.574 159.53 206.505 159.783C206.446 160.055 206.417 160.688 206.417 161.662V167.48C206.417 168.424 206.446 169.02 206.478 169.319C206.529 169.605 206.635 169.813 206.834 169.953C207.013 170.1 207.388 170.173 207.92 170.173H208.27V170.575H202.844V170.173H203.206C203.704 170.173 204.05 170.104 204.258 169.98C204.449 169.847 204.567 169.65 204.62 169.39C204.666 169.101 204.703 168.475 204.703 167.48V161.662C204.703 160.704 204.666 160.102 204.62 159.831C204.567 159.565 204.455 159.366 204.27 159.26C204.089 159.156 203.704 159.109 203.09 159.109" fill="#231F20"/>
</g>
<g id="g368">
<path id="path370" d="M221.746 170.84L213.351 159.72V167.948C213.351 168.635 213.383 169.085 213.44 169.298C213.515 169.524 213.7 169.715 214.02 169.896C214.341 170.077 214.809 170.173 215.433 170.173V170.573H211.008V170.173C211.569 170.134 212.008 170.018 212.299 169.864C212.598 169.697 212.775 169.506 212.828 169.317C212.887 169.125 212.915 168.67 212.915 167.948V161.66C212.915 160.747 212.871 160.139 212.787 159.831C212.708 159.522 212.568 159.327 212.387 159.238C212.2 159.156 211.803 159.107 211.152 159.107V158.699H214.662L221.685 167.989V160.897C221.685 160.364 221.638 159.992 221.526 159.789C221.412 159.567 221.199 159.406 220.863 159.286C220.526 159.168 220.135 159.107 219.667 159.107V158.699H223.979V159.107C223.468 159.156 223.076 159.242 222.773 159.396C222.504 159.541 222.305 159.72 222.226 159.949C222.15 160.153 222.11 160.511 222.11 161.023V170.84" fill="#231F20"/>
</g>
<g id="g372">
<path id="path374" d="M227.157 170.443V166.632H227.582C228.091 169.115 229.25 170.362 231.113 170.362C231.947 170.362 232.591 170.116 233.047 169.648C233.513 169.17 233.734 168.647 233.734 168.041C233.734 167.454 233.541 166.949 233.134 166.551C232.734 166.16 231.995 165.733 230.928 165.278C229.978 164.869 229.25 164.521 228.774 164.202C228.294 163.901 227.91 163.496 227.637 163.002C227.371 162.526 227.245 161.999 227.245 161.438C227.245 160.588 227.531 159.888 228.111 159.331C228.697 158.764 229.457 158.483 230.338 158.483C230.836 158.483 231.324 158.564 231.759 158.729C232.201 158.888 232.66 159.225 233.124 159.736C233.393 159.406 233.553 159.073 233.576 158.701H233.966V161.806H233.576C233.354 160.907 232.968 160.204 232.396 159.677C231.833 159.156 231.182 158.888 230.45 158.888C229.742 158.888 229.223 159.093 228.892 159.473C228.563 159.852 228.404 160.269 228.404 160.724C228.404 161.269 228.611 161.741 229.024 162.119C229.433 162.498 230.167 162.933 231.241 163.407C232.258 163.862 232.996 164.236 233.452 164.521C233.921 164.788 234.308 165.168 234.58 165.662C234.863 166.146 235.009 166.724 235.009 167.354C235.009 168.369 234.668 169.184 233.984 169.833C233.307 170.466 232.396 170.785 231.267 170.785C229.97 170.785 228.892 170.291 228.005 169.298C227.824 169.567 227.678 169.953 227.582 170.443" fill="#231F20"/>
</g>
<g id="g376">
<path id="path378" d="M247.264 158.701H251.234V159.109C250.697 159.144 250.319 159.26 250.05 159.467C249.788 159.667 249.636 159.888 249.575 160.136C249.528 160.395 249.481 160.873 249.481 161.601V165.546C249.481 166.561 249.446 167.311 249.363 167.804C249.288 168.29 249.068 168.767 248.684 169.247C248.318 169.717 247.773 170.098 247.098 170.366C246.41 170.651 245.619 170.785 244.734 170.785C243.677 170.785 242.78 170.612 242.052 170.266C241.314 169.894 240.795 169.443 240.484 168.865C240.163 168.29 240.016 167.533 240.016 166.573L240.03 165.355V161.662C240.03 160.724 239.996 160.102 239.941 159.833C239.888 159.565 239.772 159.366 239.595 159.26C239.408 159.158 239.018 159.109 238.428 159.109H238.153V158.701H243.571V159.109H243.331C242.758 159.109 242.369 159.158 242.184 159.252C242.005 159.341 241.877 159.53 241.828 159.791C241.763 160.055 241.741 160.69 241.741 161.662V165.398C241.741 166.695 241.788 167.61 241.901 168.151C242.034 168.702 242.369 169.17 242.918 169.591C243.48 169.994 244.214 170.189 245.133 170.189C245.865 170.189 246.522 170.055 247.106 169.774C247.71 169.506 248.143 169.166 248.421 168.767C248.722 168.357 248.901 167.95 248.964 167.515C249.019 167.088 249.06 166.41 249.06 165.483V161.44C249.06 160.771 249.019 160.293 248.94 160.039C248.867 159.762 248.706 159.565 248.452 159.398C248.206 159.24 247.811 159.144 247.264 159.109" fill="#231F20"/>
</g>
<g id="g380">
<path id="path382" d="M266.619 170.575H263.424C262.863 170.191 261.991 169.136 260.83 167.456C260.457 166.917 260.055 166.398 259.658 165.92C259.257 165.42 258.979 165.119 258.826 165.023C258.678 164.91 258.446 164.849 258.117 164.849H257.649V167.482C257.649 168.424 257.665 169.02 257.712 169.313C257.748 169.605 257.875 169.813 258.058 169.953C258.257 170.102 258.611 170.175 259.162 170.175H259.727V170.575H254.041V170.175H254.431C254.928 170.175 255.286 170.106 255.481 169.98C255.68 169.849 255.798 169.65 255.849 169.39C255.904 169.101 255.924 168.477 255.924 167.482V161.662C255.924 160.704 255.904 160.104 255.849 159.833C255.798 159.553 255.69 159.366 255.503 159.262C255.332 159.166 254.928 159.109 254.33 159.109H254.13V158.701L255.837 158.613C256.957 158.562 257.856 158.546 258.523 158.546C259.65 158.546 260.579 158.646 261.275 158.863C261.991 159.063 262.558 159.408 263.008 159.882C263.447 160.364 263.654 160.942 263.654 161.605C263.654 162.376 263.374 163.039 262.808 163.594C262.237 164.131 261.395 164.474 260.287 164.617C260.783 164.849 261.566 165.713 262.678 167.206C263.567 168.408 264.289 169.199 264.801 169.569C265.31 169.945 265.922 170.144 266.619 170.175V170.575ZM257.649 164.44C258.094 164.432 258.538 164.417 259.007 164.391C259.483 164.371 259.878 164.31 260.221 164.194C260.571 164.094 260.838 163.937 261.053 163.752C261.263 163.541 261.438 163.279 261.566 162.943C261.684 162.624 261.745 162.229 261.745 161.741C261.745 160.907 261.541 160.234 261.12 159.738C260.699 159.24 259.79 158.981 258.395 158.981C258.173 158.981 257.927 159.004 257.649 159.014" fill="#231F20"/>
</g>
<g id="g384">
<path id="path386" d="M276.361 166.187H271.86L271.555 166.941C271.097 168.042 270.868 168.749 270.868 169.085C270.868 169.445 270.986 169.709 271.228 169.896C271.476 170.077 271.781 170.173 272.157 170.173V170.573H268.639V170.173C269.159 170.091 269.552 169.908 269.81 169.618C270.058 169.329 270.38 168.711 270.739 167.785C270.772 167.704 270.896 167.358 271.15 166.783L274.601 158.526H274.939L278.913 167.952L279.452 169.201C279.578 169.485 279.735 169.709 279.932 169.868C280.158 170.026 280.465 170.134 280.877 170.173V170.573H276.218V170.173C276.788 170.173 277.168 170.134 277.363 170.049C277.575 169.953 277.672 169.793 277.672 169.54C277.672 169.414 277.54 169.02 277.276 168.397L276.361 166.187ZM276.218 165.794L274.117 160.739L272.011 165.794" fill="#231F20"/>
</g>
<g id="g388">
<path id="path390" d="M293.777 170.84L285.382 159.72V167.948C285.382 168.635 285.417 169.085 285.48 169.298C285.545 169.524 285.738 169.715 286.055 169.896C286.364 170.077 286.838 170.173 287.469 170.173V170.573H283.045V170.173C283.609 170.134 284.034 170.018 284.335 169.864C284.636 169.697 284.819 169.506 284.87 169.317C284.923 169.125 284.961 168.67 284.961 167.948V161.66C284.961 160.747 284.908 160.139 284.819 159.831C284.737 159.522 284.605 159.327 284.412 159.238C284.231 159.156 283.83 159.107 283.192 159.107V158.699H286.692L293.718 167.989V160.897C293.718 160.364 293.665 159.992 293.556 159.789C293.448 159.567 293.232 159.406 292.895 159.286C292.561 159.168 292.167 159.107 291.693 159.107V158.699H296.014V159.107C295.514 159.156 295.095 159.242 294.806 159.396C294.524 159.541 294.349 159.72 294.257 159.949C294.178 160.153 294.147 160.511 294.147 161.023V170.84" fill="#231F20"/>
</g>
<g id="g392">
<path id="path394" d="M309.48 166.118H309.854V170.268H309.48C309.376 169.799 309.179 169.388 308.908 169.012C307.859 170.201 306.533 170.785 304.912 170.785C303.195 170.785 301.788 170.242 300.702 169.166C299.612 168.078 299.065 166.642 299.065 164.861C299.065 163.683 299.319 162.577 299.819 161.548C300.324 160.511 301.032 159.736 301.928 159.238C302.831 158.729 303.808 158.483 304.877 158.483C305.77 158.483 306.573 158.662 307.291 159.032C308.007 159.406 308.558 159.791 308.908 160.236C309.166 159.736 309.313 159.238 309.37 158.701H309.75L309.854 163.199H309.48C309.213 161.599 308.682 160.486 307.871 159.864C307.07 159.242 306.158 158.928 305.144 158.928C303.891 158.928 302.898 159.441 302.166 160.442C301.444 161.452 301.078 162.894 301.078 164.775C301.078 166.561 301.469 167.923 302.27 168.873C303.075 169.811 304.07 170.291 305.262 170.291C305.894 170.291 306.541 170.142 307.208 169.833C307.879 169.524 308.4 168.999 308.788 168.265C309.179 167.515 309.412 166.809 309.48 166.118Z" fill="#231F20"/>
</g>
<g id="g396">
<path id="path398" d="M323.242 166.884H323.663L323.4 170.573H313.569V170.173H313.811C314.407 170.173 314.794 170.091 314.962 169.927C315.127 169.774 315.231 169.579 315.294 169.337C315.337 169.093 315.359 168.475 315.359 167.48V161.662C315.359 160.751 315.333 160.165 315.29 159.874C315.231 159.589 315.119 159.396 314.928 159.276C314.765 159.164 314.401 159.11 313.811 159.11V158.701H322.3L322.595 161.662H322.162C321.987 160.826 321.753 160.248 321.478 159.907C321.212 159.553 320.891 159.331 320.512 159.242C320.148 159.156 319.54 159.11 318.706 159.11H317.077V164.094H318.326C318.904 164.094 319.306 164.043 319.536 163.938C319.766 163.84 319.919 163.683 320 163.492C320.071 163.293 320.1 162.878 320.1 162.309H320.512V166.374H320.1C320.1 165.717 320.045 165.266 319.941 165.05C319.825 164.83 319.654 164.67 319.449 164.617C319.233 164.552 318.879 164.503 318.371 164.503H317.077V167.311C317.077 168.727 317.153 169.546 317.344 169.799C317.517 170.055 318.007 170.173 318.8 170.173H319.685C320.317 170.173 320.819 170.091 321.22 169.927C321.621 169.766 322.007 169.445 322.367 168.942C322.737 168.448 323.028 167.755 323.242 166.884Z" fill="#231F20"/>
</g>
</g>
</g>
</g>
<defs>
<clipPath id="clip0_65_766">
<rect width="407" height="95.8279" fill="white" transform="translate(6.50049 77.0862)"/>
</clipPath>
</defs>
</svg>
